<svg width="512" height="512" viewBox="0 0 512 512" fill="none" xmlns="http://www.w3.org/2000/svg">
  <rect width="512" height="512" fill="#4F46E5"/>
  <path d="M256 128C179.307 128 117 190.307 117 257C117 323.693 179.307 386 256 386C322.693 386 385 323.693 385 257C385 190.307 322.693 128 256 128ZM256 352C197.065 352 149 303.935 149 245C149 186.065 197.065 138 256 138C314.935 138 363 186.065 363 245C363 303.935 314.935 352 256 352Z" fill="white"/>
  <path d="M256 192C211.817 192 177 226.817 177 271C177 315.183 211.817 350 256 350C300.183 350 335 315.183 335 271C335 226.817 300.183 192 256 192ZM256 316C229.49 316 208 294.51 208 268C208 241.49 229.49 220 256 220C282.51 220 304 241.49 304 268C304 294.51 282.51 316 256 316Z" fill="white"/>
  <circle cx="256" cy="271" r="24" fill="white"/>
</svg> 