<svg width="127" height="38" viewBox="0 0 127 38" fill="none" xmlns="http://www.w3.org/2000/svg">
<path d="M0.392505 16.38C0.392505 6.85021 4.1372 2.08532 11.6266 2.08532C14.5912 2.08532 16.9016 2.70344 18.5579 3.93967C20.2262 5.1639 21.3724 6.82021 21.9965 8.9086C22.6327 10.985 22.9507 13.4755 22.9507 16.38C22.9507 20.6528 22.0746 24.0494 20.3222 26.5699C18.5699 29.0904 15.6714 30.3506 11.6266 30.3506C7.55784 30.3506 4.6653 29.1024 2.94898 26.6059C1.24466 24.1094 0.392505 20.7008 0.392505 16.38ZM12.5268 24.6075C13.511 24.6075 14.0751 24.5535 14.2191 24.4455C14.5191 23.9174 14.7472 22.9992 14.9032 21.691C15.0592 20.3707 15.1373 18.8945 15.1373 17.2622C15.1373 15.5458 15.0532 13.9555 14.8852 12.4913C14.7292 11.015 14.5071 9.9828 14.2191 9.39469C13.919 9.15465 13.475 8.97461 12.8868 8.85459C12.2987 8.73457 11.6506 8.66855 10.9425 8.65655C10.5344 8.65655 10.1623 8.68056 9.82627 8.72857C9.50221 8.76457 9.26816 8.82458 9.12414 8.9086C8.77607 9.50871 8.51802 10.3789 8.34999 11.5191C8.19396 12.6473 8.11595 13.9375 8.11595 15.3898C8.11595 17.0341 8.20597 18.6724 8.386 20.3047C8.56603 21.937 8.78807 23.1853 9.05212 24.0494C9.22015 24.2295 9.64623 24.3675 10.3304 24.4635C11.0145 24.5595 11.7466 24.6075 12.5268 24.6075ZM24.5863 19.6026C24.5863 17.7783 24.8383 16.0319 25.3424 14.3636C25.8585 12.6953 26.6627 11.3271 27.7549 10.2589C28.8591 9.19065 30.2453 8.65655 31.9137 8.65655C33.786 8.65655 35.5743 9.25066 37.2787 10.4389L37.5667 10.2589C37.5307 8.85459 37.3567 7.58235 37.0446 6.44214L33.3899 6.20809C33.2219 5.99205 33.0899 5.67399 32.9939 5.25392C32.8978 4.82184 32.8498 4.37775 32.8498 3.92167C32.8498 3.30955 32.9218 2.78145 33.0659 2.33737C33.786 1.82127 34.7102 1.4312 35.8384 1.16715C36.9666 0.903103 38.0948 0.771078 39.223 0.771078C40.4713 0.771078 41.4134 1.03513 42.0496 1.56323C42.6857 2.07932 43.1118 2.86547 43.3278 3.92167C43.5558 4.96586 43.6699 6.41813 43.6699 8.27848C43.6699 10.7269 43.5678 13.5055 43.3638 16.614C43.1598 19.7226 42.8957 22.2611 42.5717 24.2295L42.4996 24.5355L44.588 23.6354C44.9361 24.0074 45.2422 24.4635 45.5062 25.0036C45.7823 25.5317 45.9563 26.1438 46.0283 26.84C45.8603 27.2 45.4942 27.6621 44.9301 28.2262C44.366 28.7783 43.6759 29.2704 42.8597 29.7025C42.0436 30.1346 41.1914 30.3506 40.3032 30.3506C39.307 30.3506 38.5389 30.0566 37.9988 29.4684C37.4707 28.8683 37.2066 28.1062 37.2066 27.182C37.2066 26.942 37.2667 26.4499 37.3867 25.7057C37.5187 24.9616 37.6267 24.4455 37.7107 24.1574L37.1706 23.9954C36.5585 26.1438 35.7484 27.7401 34.7402 28.7843C33.732 29.8285 32.4838 30.3506 30.9955 30.3506C29.3992 30.3506 28.121 29.8225 27.1608 28.7663C26.2126 27.6981 25.5465 26.3599 25.1624 24.7516C24.7783 23.1433 24.5863 21.4269 24.5863 19.6026ZM36.9366 19.2785C37.0086 18.8465 37.0446 18.3424 37.0446 17.7663C37.0446 17.3942 37.0266 17.0401 36.9906 16.7041C36.9666 16.368 36.9366 16.1279 36.9006 15.9839C36.4205 15.6359 35.8744 15.3898 35.2623 15.2458C34.6622 15.1018 34.1101 15.0297 33.606 15.0297C33.2939 15.0297 32.9579 15.0597 32.5978 15.1198C32.3577 15.3598 32.1657 15.8819 32.0217 16.6861C31.8777 17.4782 31.8056 18.3724 31.8056 19.3686C31.8056 20.4368 31.8777 21.4749 32.0217 22.4831C32.1777 23.4793 32.3938 24.2595 32.6698 24.8236C32.8618 24.8236 33.2339 24.5295 33.786 23.9414C34.3501 23.3413 34.9322 22.6092 35.5323 21.745C36.1324 20.8688 36.6005 20.0467 36.9366 19.2785ZM52.7588 27.7401C52.5308 26.852 52.1047 25.5677 51.4806 23.8874C50.8565 22.1951 50.2023 20.5688 49.5182 19.0085C48.8341 17.4482 48.294 16.374 47.8979 15.7859L46.2416 15.4978C46.0736 15.0297 45.9415 14.5136 45.8455 13.9495C45.7615 13.3734 45.6895 12.7073 45.6295 11.9512C45.8335 11.3871 46.1456 10.853 46.5657 10.3489C46.9857 9.84477 47.4898 9.4367 48.0779 9.12464C48.6781 8.81258 49.3262 8.65655 50.0223 8.65655C51.1625 8.65655 52.1047 8.98061 52.8488 9.62873C53.605 10.2649 54.1871 11.069 54.5952 12.0412C55.0152 13.0014 55.3813 14.1356 55.6934 15.4438C56.3295 17.9763 56.7376 21.1149 56.9176 24.8596L57.3137 24.7876C57.7818 23.7434 58.1778 22.2491 58.5019 20.3047C58.838 18.3604 59.018 16.494 59.042 14.7057L56.7916 14.3636C56.5275 13.3554 56.3955 12.1732 56.3955 10.817C56.6595 10.4929 57.0376 10.1688 57.5297 9.84477C58.0338 9.50871 58.6279 9.22666 59.312 8.99862C59.9962 8.77057 60.7223 8.65655 61.4905 8.65655C64.587 8.65655 66.1353 10.2108 66.1353 13.3194C66.1353 15.7679 65.6912 18.1443 64.8031 20.4488C63.9269 22.7532 62.6067 24.8356 60.8423 26.6959C59.078 28.5563 56.9296 30.0205 54.3971 31.0887L54.5412 31.6829C54.8652 31.7189 55.1833 31.7369 55.4953 31.7369C56.5155 31.7369 57.7458 31.5688 59.186 31.2328C60.0022 32.1449 60.4103 33.1411 60.4103 34.2213C60.4103 34.5454 60.3742 34.8755 60.3022 35.2115C59.5821 35.9076 58.6819 36.5078 57.6017 37.0119C56.5215 37.5159 55.3333 37.768 54.0371 37.768C52.1527 37.768 50.6284 37.3419 49.4642 36.4898C48.3 35.6376 47.7179 34.3414 47.7179 32.601C47.7179 31.8209 47.9519 31.1368 48.42 30.5486C48.9001 29.9725 49.4522 29.5044 50.0763 29.1444C50.7124 28.7723 51.6066 28.3042 52.7588 27.7401ZM68.9231 23.6354C69.9793 24.0554 70.8255 24.3795 71.4616 24.6075C72.0977 24.8356 72.7938 25.0336 73.55 25.2016C74.3181 25.3697 75.0803 25.4537 75.8364 25.4537C76.1725 25.4537 76.4125 25.4237 76.5565 25.3637C76.5925 25.3157 76.6225 25.2437 76.6465 25.1476C76.6826 25.0396 76.7006 24.9316 76.7006 24.8236C76.7006 24.5835 76.5625 24.3855 76.2865 24.2295C75.8544 23.9894 75.0863 23.6113 73.982 23.0953C72.4698 22.3751 71.2695 21.733 70.3814 21.1689C69.5052 20.6048 68.7611 19.8546 68.149 18.9185C67.5488 17.9823 67.2488 16.8061 67.2488 15.3898C67.2488 13.3614 67.8549 11.7351 69.0671 10.5109C70.2794 9.27467 72.1997 8.65655 74.8282 8.65655C77.9608 8.65655 80.3972 9.06463 82.1376 9.88078C82.2216 10.2288 82.2636 10.6669 82.2636 11.195C82.2636 12.2032 82.1076 13.2354 81.7955 14.2916C81.4835 15.3358 81.0754 16.1099 80.5713 16.614C79.8872 16.386 78.921 16.0199 77.6727 15.5158C76.7606 15.1558 76.0344 14.8797 75.4943 14.6877C74.9662 14.4836 74.4801 14.3396 74.0361 14.2556C73.796 14.3156 73.604 14.4596 73.46 14.6877C73.3159 14.9037 73.2439 15.1618 73.2439 15.4618C73.2439 15.7259 73.3219 15.9479 73.478 16.1279C73.634 16.308 73.808 16.452 74.0001 16.56C74.2041 16.656 74.4921 16.7881 74.8642 16.9561C75.0563 17.0401 75.2363 17.1181 75.4043 17.1901C75.5723 17.2502 75.7284 17.3102 75.8724 17.3702C76.8086 17.7663 77.5467 18.0903 78.0868 18.3424C78.6269 18.5944 79.149 18.8945 79.6531 19.2425C80.5773 19.8786 81.3034 20.6048 81.8315 21.4209C82.3596 22.2371 82.6237 23.1313 82.6237 24.1034C82.6237 25.4477 82.2396 26.6119 81.4714 27.5961C80.7153 28.5683 79.7431 29.2764 78.5549 29.7205C77.9308 29.9485 77.2467 30.1106 76.5025 30.2066C75.7704 30.3146 74.9122 30.3686 73.928 30.3686C72.7638 30.3686 71.5636 30.1466 70.3274 29.7025C69.1031 29.2464 68.167 28.4903 67.5188 27.4341C67.5308 26.7019 67.6269 26.0658 67.8069 25.5257C67.9989 24.9736 68.371 24.3435 68.9231 23.6354ZM88.6701 22.7712C90.2544 22.7712 91.4066 23.1193 92.1267 23.8154C92.8588 24.4995 93.2249 25.3637 93.2249 26.4079C93.2249 27.104 93.0029 27.7581 92.5588 28.3702C92.1267 28.9703 91.5566 29.4504 90.8485 29.8105C90.1523 30.1706 89.4262 30.3506 88.6701 30.3506C87.9139 30.3506 87.1818 30.1706 86.4737 29.8105C85.7775 29.4504 85.2074 28.9703 84.7633 28.3702C84.3313 27.7581 84.1152 27.104 84.1152 26.4079C84.1152 25.3637 84.4753 24.4995 85.1954 23.8154C85.9275 23.1193 87.0858 22.7712 88.6701 22.7712ZM100.928 18.1263C101.636 18.1263 102.416 18.1983 103.268 18.3424C104.132 18.4864 104.924 18.6604 105.644 18.8645V18.3064C105.644 17.9343 105.632 17.5202 105.608 17.0641C105.596 16.608 105.572 16.308 105.536 16.164C105.428 15.9599 105.116 15.7499 104.6 15.5338C104.096 15.3178 103.268 15.2098 102.116 15.2098C101.408 15.2098 100.676 15.2998 99.9194 15.4798C99.1753 15.6479 98.3471 15.8759 97.435 16.164C96.9429 15.3478 96.5468 14.5737 96.2467 13.8415C95.9587 13.0974 95.8147 12.3532 95.8147 11.6091C95.8147 11.3811 95.8327 11.153 95.8687 10.925C97.813 9.41269 100.328 8.65655 103.412 8.65655C105.116 8.65655 106.629 8.84859 107.949 9.23266C109.269 9.61673 110.355 10.3609 111.208 11.4651C112.06 12.5693 112.486 14.1356 112.486 16.164C112.486 18.1443 112.252 20.0647 111.784 21.925C111.328 23.7734 111.094 24.7156 111.082 24.7516L113.692 23.6354C114.04 24.0074 114.346 24.4635 114.61 25.0036C114.886 25.5317 115.06 26.1438 115.132 26.84C114.964 27.2 114.598 27.6621 114.034 28.2262C113.47 28.7783 112.78 29.2704 111.964 29.7025C111.148 30.1346 110.295 30.3506 109.407 30.3506C108.411 30.3506 107.655 30.0566 107.139 29.4684C106.635 28.8803 106.383 28.1182 106.383 27.182C106.383 26.6539 106.461 26.1198 106.617 25.5797L106.077 25.4177C105.741 27.314 105.026 28.6103 103.934 29.3064C102.842 30.0025 101.636 30.3506 100.316 30.3506C99.4513 30.3506 98.6172 30.1106 97.813 29.6305C97.0089 29.1384 96.3548 28.4302 95.8507 27.5061C95.3466 26.5699 95.0945 25.4777 95.0945 24.2295C95.0945 22.2371 95.5926 20.7248 96.5888 19.6926C97.585 18.6484 99.0313 18.1263 100.928 18.1263ZM102.98 24.9856C103.28 24.9256 103.634 24.7576 104.042 24.4815C104.462 24.2055 104.834 23.8754 105.158 23.4913C105.482 23.1073 105.675 22.7412 105.735 22.3931L105.626 21.961C104.99 21.877 104.312 21.835 103.592 21.835C102.98 21.835 102.56 21.883 102.332 21.979C101.948 22.4111 101.756 22.8912 101.756 23.4193C101.756 23.8034 101.852 24.1514 102.044 24.4635C102.248 24.7756 102.56 24.9496 102.98 24.9856ZM115.958 4.15571C115.958 3.09951 116.3 2.24135 116.984 1.58123C117.68 0.921106 118.784 0.591044 120.297 0.591044C121.809 0.591044 122.907 0.921106 123.591 1.58123C124.287 2.24135 124.635 3.09951 124.635 4.15571C124.635 4.75582 124.425 5.30793 124.005 5.81202C123.597 6.31611 123.057 6.71819 122.385 7.01825C121.713 7.3063 121.017 7.45033 120.297 7.45033C119.516 7.45033 118.79 7.2823 118.118 6.94623C117.458 6.59817 116.93 6.16609 116.534 5.64999C116.15 5.13389 115.958 4.6358 115.958 4.15571ZM115.076 14.4536C114.919 13.8655 114.811 13.3314 114.751 12.8513C114.691 12.3592 114.661 11.8491 114.661 11.3211L114.679 10.817C114.931 10.4929 115.322 10.1688 115.85 9.84477C116.39 9.50871 117.014 9.22666 117.722 8.99862C118.442 8.77057 119.186 8.65655 119.954 8.65655C121.635 8.65655 122.829 9.03462 123.537 9.79076C124.245 10.5469 124.599 11.7231 124.599 13.3194C124.599 14.2796 124.461 15.5338 124.185 17.0821C123.921 18.6304 123.597 20.1367 123.213 21.601C122.841 23.0532 122.517 24.0914 122.241 24.7156L122.277 24.7516L124.941 23.7794C125.421 24.1875 125.782 24.6375 126.022 25.1296C126.274 25.6217 126.436 26.1918 126.508 26.84C126.508 26.924 126.244 27.272 125.716 27.8841C125.187 28.4843 124.485 29.0484 123.609 29.5765C122.745 30.0926 121.743 30.3506 120.603 30.3506C119.45 30.3506 118.514 30.0385 117.794 29.4144C117.086 28.7903 116.732 27.7221 116.732 26.2098C116.732 24.4455 116.78 22.5732 116.876 20.5928C116.972 18.6124 117.122 16.6921 117.326 14.8317L115.076 14.4536Z" fill="black"/>
</svg>
